  0
SECTION
  2
HEADER
  9
$ACADVER
  1
AC1024
  9
$ACADMAINTVER
 70
6
  9
$DWGCODEPAGE
  3
ANSI_1252
  9
$LASTSAVEDBY
  1
ezdxf
  9
$INSBASE
 10
0.0
 20
0.0
 30
0.0
  9
$EXTMIN
 10
1e+20
 20
1e+20
 30
1e+20
  9
$EXTMAX
 10
-1e+20
 20
-1e+20
 30
-1e+20
  9
$LIMMIN
 10
0.0
 20
0.0
  9
$LIMMAX
 10
420.0
 20
297.0
  9
$ORTHOMODE
 70
0
  9
$REGENMODE
 70
1
  9
$FILLMODE
 70
1
  9
$QTEXTMODE
 70
0
  9
$MIRRTEXT
 70
1
  9
$LTSCALE
 40
1.0
  9
$ATTMODE
 70
1
  9
$TEXTSIZE
 40
2.5
  9
$TRACEWID
 40
1.0
  9
$TEXTSTYLE
  7
Standard
  9
$CLAYER
  8
0
  9
$CELTYPE
  6
ByLayer
  9
$CECOLOR
 62
256
  9
$CELTSCALE
 40
1.0
  9
$DISPSILH
 70
0
  9
$DIMSCALE
 40
1.0
  9
$DIMASZ
 40
2.5
  9
$DIMEXO
 40
0.625
  9
$DIMDLI
 40
3.75
  9
$DIMRND
 40
0.0
  9
$DIMDLE
 40
0.0
  9
$DIMEXE
 40
1.25
  9
$DIMTP
 40
0.0
  9
$DIMTM
 40
0.0
  9
$DIMTXT
 40
2.5
  9
$DIMCEN
 40
2.5
  9
$DIMTSZ
 40
0.0
  9
$DIMTOL
 70
0
  9
$DIMLIM
 70
0
  9
$DIMTIH
 70
0
  9
$DIMTOH
 70
0
  9
$DIMSE1
 70
0
  9
$DIMSE2
 70
0
  9
$DIMTAD
 70
1
  9
$DIMZIN
 70
8
  9
$DIMBLK
  1

  9
$DIMASO
 70
1
  9
$DIMSHO
 70
1
  9
$DIMPOST
  1

  9
$DIMAPOST
  1

  9
$DIMALT
 70
0
  9
$DIMALTD
 70
3
  9
$DIMALTF
 40
0.03937007874
  9
$DIMLFAC
 40
1.0
  9
$DIMTOFL
 70
1
  9
$DIMTVP
 40
0.0
  9
$DIMTIX
 70
0
  9
$DIMSOXD
 70
0
  9
$DIMSAH
 70
0
  9
$DIMBLK1
  1

  9
$DIMBLK2
  1

  9
$DIMSTYLE
  2
ISO-25
  9
$DIMCLRD
 70
0
  9
$DIMCLRE
 70
0
  9
$DIMCLRT
 70
0
  9
$DIMTFAC
 40
1.0
  9
$DIMGAP
 40
0.625
  9
$DIMJUST
 70
0
  9
$DIMSD1
 70
0
  9
$DIMSD2
 70
0
  9
$DIMTOLJ
 70
0
  9
$DIMTZIN
 70
8
  9
$DIMALTZ
 70
0
  9
$DIMALTTZ
 70
0
  9
$DIMUPT
 70
0
  9
$DIMDEC
 70
2
  9
$DIMTDEC
 70
2
  9
$DIMALTU
 70
2
  9
$DIMALTTD
 70
3
  9
$DIMTXSTY
  7
Standard
  9
$DIMAUNIT
 70
0
  9
$DIMADEC
 70
0
  9
$DIMALTRND
 40
0.0
  9
$DIMAZIN
 70
0
  9
$DIMDSEP
 70
44
  9
$DIMATFIT
 70
3
  9
$DIMFRAC
 70
0
  9
$DIMLDRBLK
  1

  9
$DIMLUNIT
 70
2
  9
$DIMLWD
 70
-2
  9
$DIMLWE
 70
-2
  9
$DIMTMOVE
 70
0
  9
$DIMFXL
 40
1.0
  9
$DIMFXLON
 70
0
  9
$DIMJOGANG
 40
0.785398163397
  9
$DIMTFILL
 70
0
  9
$DIMTFILLCLR
 70
0
  9
$DIMARCSYM
 70
0
  9
$DIMLTYPE
  6

  9
$DIMLTEX1
  6

  9
$DIMLTEX2
  6

  9
$DIMTXTDIRECTION
 70
0
  9
$LUNITS
 70
2
  9
$LUPREC
 70
4
  9
$SKETCHINC
 40
1.0
  9
$FILLETRAD
 40
10.0
  9
$AUNITS
 70
0
  9
$AUPREC
 70
2
  9
$MENU
  1
.
  9
$ELEVATION
 40
0.0
  9
$PELEVATION
 40
0.0
  9
$THICKNESS
 40
0.0
  9
$LIMCHECK
 70
0
  9
$CHAMFERA
 40
0.0
  9
$CHAMFERB
 40
0.0
  9
$CHAMFERC
 40
0.0
  9
$CHAMFERD
 40
0.0
  9
$SKPOLY
 70
0
  9
$TDCREATE
 40
2459920.039363426
  9
$TDUCREATE
 40
2458532.153996898
  9
$TDUPDATE
 40
2459920.039363426
  9
$TDUUPDATE
 40
2458532.1544311
  9
$TDINDWG
 40
0.0
  9
$TDUSRTIMER
 40
0.0
  9
$USRTIMER
 70
1
  9
$ANGBASE
 50
0.0
  9
$ANGDIR
 70
0
  9
$PDMODE
 70
0
  9
$PDSIZE
 40
0.0
  9
$PLINEWID
 40
0.0
  9
$SPLFRAME
 70
0
  9
$SPLINETYPE
 70
6
  9
$SPLINESEGS
 70
8
  9
$HANDSEED
  5
37
  9
$SURFTAB1
 70
6
  9
$SURFTAB2
 70
6
  9
$SURFTYPE
 70
6
  9
$SURFU
 70
6
  9
$SURFV
 70
6
  9
$UCSBASE
  2

  9
$UCSNAME
  2

  9
$UCSORG
 10
0.0
 20
0.0
 30
0.0
  9
$UCSXDIR
 10
1.0
 20
0.0
 30
0.0
  9
$UCSYDIR
 10
0.0
 20
1.0
 30
0.0
  9
$UCSORTHOREF
  2

  9
$UCSORTHOVIEW
 70
0
  9
$UCSORGTOP
 10
0.0
 20
0.0
 30
0.0
  9
$UCSORGBOTTOM
 10
0.0
 20
0.0
 30
0.0
  9
$UCSORGLEFT
 10
0.0
 20
0.0
 30
0.0
  9
$UCSORGRIGHT
 10
0.0
 20
0.0
 30
0.0
  9
$UCSORGFRONT
 10
0.0
 20
0.0
 30
0.0
  9
$UCSORGBACK
 10
0.0
 20
0.0
 30
0.0
  9
$PUCSBASE
  2

  9
$PUCSNAME
  2

  9
$PUCSORG
 10
0.0
 20
0.0
 30
0.0
  9
$PUCSXDIR
 10
1.0
 20
0.0
 30
0.0
  9
$PUCSYDIR
 10
0.0
 20
1.0
 30
0.0
  9
$PUCSORTHOREF
  2

  9
$PUCSORTHOVIEW
 70
0
  9
$PUCSORGTOP
 10
0.0
 20
0.0
 30
0.0
  9
$PUCSORGBOTTOM
 10
0.0
 20
0.0
 30
0.0
  9
$PUCSORGLEFT
 10
0.0
 20
0.0
 30
0.0
  9
$PUCSORGRIGHT
 10
0.0
 20
0.0
 30
0.0
  9
$PUCSORGFRONT
 10
0.0
 20
0.0
 30
0.0
  9
$PUCSORGBACK
 10
0.0
 20
0.0
 30
0.0
  9
$USERI1
 70
0
  9
$USERI2
 70
0
  9
$USERI3
 70
0
  9
$USERI4
 70
0
  9
$USERI5
 70
0
  9
$USERR1
 40
0.0
  9
$USERR2
 40
0.0
  9
$USERR3
 40
0.0
  9
$USERR4
 40
0.0
  9
$USERR5
 40
0.0
  9
$WORLDVIEW
 70
1
  9
$SHADEDGE
 70
3
  9
$SHADEDIF
 70
70
  9
$TILEMODE
 70
1
  9
$MAXACTVP
 70
64
  9
$PINSBASE
 10
0.0
 20
0.0
 30
0.0
  9
$PLIMCHECK
 70
0
  9
$PEXTMIN
 10
1e+20
 20
1e+20
 30
1e+20
  9
$PEXTMAX
 10
-1e+20
 20
-1e+20
 30
-1e+20
  9
$PLIMMIN
 10
0.0
 20
0.0
  9
$PLIMMAX
 10
420.0
 20
297.0
  9
$UNITMODE
 70
0
  9
$VISRETAIN
 70
1
  9
$PLINEGEN
 70
0
  9
$PSLTSCALE
 70
1
  9
$TREEDEPTH
 70
3020
  9
$CMLSTYLE
  2
Standard
  9
$CMLJUST
 70
0
  9
$CMLSCALE
 40
20.0
  9
$PROXYGRAPHICS
 70
1
  9
$MEASUREMENT
 70
1
  9
$CELWEIGHT
370
-1
  9
$ENDCAPS
280
0
  9
$JOINSTYLE
280
0
  9
$LWDISPLAY
290
0
  9
$INSUNITS
 70
6
  9
$HYPERLINKBASE
  1

  9
$STYLESHEET
  1

  9
$XEDIT
290
1
  9
$CEPSNTYPE
380
0
  9
$PSTYLEMODE
290
1
  9
$FINGERPRINTGUID
  2
{21DCD013-FDC1-4429-8D54-DE12B2E763A7}
  9
$VERSIONGUID
  2
{C0C0E5F5-5EC8-40F7-94C6-46F90E5C17BD}
  9
$EXTNAMES
290
1
  9
$PSVPSCALE
 40
0.0
  9
$OLESTARTUP
290
0
  9
$SORTENTS
280
127
  9
$INDEXCTL
280
0
  9
$HIDETEXT
280
1
  9
$XCLIPFRAME
280
0
  9
$HALOGAP
280
0
  9
$OBSCOLOR
 70
257
  9
$OBSLTYPE
280
0
  9
$INTERSECTIONDISPLAY
280
0
  9
$INTERSECTIONCOLOR
 70
257
  9
$DIMASSOC
280
2
  9
$PROJECTNAME
  1

  9
$CAMERADISPLAY
290
0
  9
$LENSLENGTH
 40
50.0
  9
$CAMERAHEIGHT
 40
0.0
  9
$STEPSPERSEC
 40
24.0
  9
$STEPSIZE
 40
100.0
  9
$3DDWFPREC
 40
2.0
  9
$PSOLWIDTH
 40
0.005
  9
$PSOLHEIGHT
 40
0.08
  9
$LOFTANG1
 40
1.570796326795
  9
$LOFTANG2
 40
1.570796326795
  9
$LOFTMAG1
 40
0.0
  9
$LOFTMAG2
 40
0.0
  9
$LOFTPARAM
 70
7
  9
$LOFTNORMALS
280
1
  9
$LATITUDE
 40
37.795
  9
$LONGITUDE
 40
-122.394
  9
$NORTHDIRECTION
 40
0.0
  9
$TIMEZONE
 70
-8000
  9
$LIGHTGLYPHDISPLAY
280
1
  9
$TILEMODELIGHTSYNCH
280
1
  9
$CMATERIAL
347
20
  9
$SOLIDHIST
280
0
  9
$SHOWHIST
280
1
  9
$DWFFRAME
280
2
  9
$DGNFRAME
280
2
  9
$REALWORLDSCALE
290
1
  9
$INTERFERECOLOR
 62
256
  9
$CSHADOW
280
0
  9
$SHADOWPLANELOCATION
 40
0.0
  0
ENDSEC
  0
SECTION
  2
CLASSES
  0
CLASS
  1
ACDBDICTIONARYWDFLT
  2
AcDbDictionaryWithDefault
  3
ObjectDBX Classes
 90
0
 91
0
280
0
281
0
  0
CLASS
  1
SUN
  2
AcDbSun
  3
SCENEOE
 90
1153
 91
0
280
0
281
0
  0
CLASS
  1
VISUALSTYLE
  2
AcDbVisualStyle
  3
ObjectDBX Classes
 90
4095
 91
0
280
0
281
0
  0
CLASS
  1
MATERIAL
  2
AcDbMaterial
  3
ObjectDBX Classes
 90
1153
 91
0
280
0
281
0
  0
CLASS
  1
SCALE
  2
AcDbScale
  3
ObjectDBX Classes
 90
1153
 91
0
280
0
281
0
  0
CLASS
  1
TABLESTYLE
  2
AcDbTableStyle
  3
ObjectDBX Classes
 90
4095
 91
0
280
0
281
0
  0
CLASS
  1
MLEADERSTYLE
  2
AcDbMLeaderStyle
  3
ACDB_MLEADERSTYLE_CLASS
 90
4095
 91
0
280
0
281
0
  0
CLASS
  1
DICTIONARYVAR
  2
AcDbDictionaryVar
  3
ObjectDBX Classes
 90
0
 91
0
280
0
281
0
  0
CLASS
  1
CELLSTYLEMAP
  2
AcDbCellStyleMap
  3
ObjectDBX Classes
 90
1152
 91
0
280
0
281
0
  0
CLASS
  1
MENTALRAYRENDERSETTINGS
  2
AcDbMentalRayRenderSettings
  3
SCENEOE
 90
1024
 91
0
280
0
281
0
  0
CLASS
  1
ACDBDETAILVIEWSTYLE
  2
AcDbDetailViewStyle
  3
ObjectDBX Classes
 90
1025
 91
0
280
0
281
0
  0
CLASS
  1
ACDBSECTIONVIEWSTYLE
  2
AcDbSectionViewStyle
  3
ObjectDBX Classes
 90
1025
 91
0
280
0
281
0
  0
CLASS
  1
RASTERVARIABLES
  2
AcDbRasterVariables
  3
ISM
 90
0
 91
0
280
0
281
0
  0
CLASS
  1
ACDBPLACEHOLDER
  2
AcDbPlaceHolder
  3
ObjectDBX Classes
 90
0
 91
0
280
0
281
0
  0
CLASS
  1
LAYOUT
  2
AcDbLayout
  3
ObjectDBX Classes
 90
0
 91
0
280
0
281
0
  0
ENDSEC
  0
SECTION
  2
TABLES
  0
TABLE
  2
VPORT
  5
8
330
0
100
AcDbSymbolTable
 70
1
  0
VPORT
  5
23
330
8
100
AcDbSymbolTableRecord
100
AcDbViewportTableRecord
  2
*Active
 70
0
 10
0.0
 20
0.0
 11
1.0
 21
1.0
 12
0.0
 22
0.0
 13
0.0
 23
0.0
 14
0.5
 24
0.5
 15
0.5
 25
0.5
 16
0.0
 26
0.0
 36
1.0
 17
0.0
 27
0.0
 37
0.0
 40
1000.0
 41
1.34
 42
50.0
 43
0.0
 44
0.0
 50
0.0
 51
0.0
 71
0
 72
1000
 73
1
 74
3
 75
0
 76
0
 77
0
 78
0
281
0
 65
0
146
0.0
  0
ENDTAB
  0
TABLE
  2
LTYPE
  5
2
330
0
100
AcDbSymbolTable
 70
3
  0
LTYPE
  5
24
330
2
100
AcDbSymbolTableRecord
100
AcDbLinetypeTableRecord
  2
ByBlock
 70
0
  3

 72
65
 73
0
 40
0.0
  0
LTYPE
  5
25
330
2
100
AcDbSymbolTableRecord
100
AcDbLinetypeTableRecord
  2
ByLayer
 70
0
  3

 72
65
 73
0
 40
0.0
  0
LTYPE
  5
26
330
2
100
AcDbSymbolTableRecord
100
AcDbLinetypeTableRecord
  2
Continuous
 70
0
  3

 72
65
 73
0
 40
0.0
  0
ENDTAB
  0
TABLE
  2
LAYER
  5
1
330
0
100
AcDbSymbolTable
 70
2
  0
LAYER
  5
27
330
1
100
AcDbSymbolTableRecord
100
AcDbLayerTableRecord
  2
0
 70
0
 62
7
  6
Continuous
370
-3
390
13
347
21
  0
LAYER
  5
28
330
1
100
AcDbSymbolTableRecord
100
AcDbLayerTableRecord
  2
Defpoints
 70
0
 62
7
  6
Continuous
290
0
370
-3
390
13
347
21
  0
ENDTAB
  0
TABLE
  2
STYLE
  5
5
330
0
100
AcDbSymbolTable
 70
1
  0
STYLE
  5
29
330
5
100
AcDbSymbolTableRecord
100
AcDbTextStyleTableRecord
  2
Standard
 70
0
 40
0.0
 41
1.0
 50
0.0
 71
0
 42
2.5
  3
txt
  4

  0
ENDTAB
  0
TABLE
  2
VIEW
  5
7
330
0
100
AcDbSymbolTable
 70
0
  0
ENDTAB
  0
TABLE
  2
UCS
  5
6
330
0
100
AcDbSymbolTable
 70
0
  0
ENDTAB
  0
TABLE
  2
APPID
  5
3
330
0
100
AcDbSymbolTable
 70
3
  0
APPID
  5
2A
330
3
100
AcDbSymbolTableRecord
100
AcDbRegAppTableRecord
  2
ACAD
 70
0
  0
APPID
  5
34
330
3
100
AcDbSymbolTableRecord
100
AcDbRegAppTableRecord
  2
HATCHBACKGROUNDCOLOR
 70
0
  0
APPID
  5
35
330
3
100
AcDbSymbolTableRecord
100
AcDbRegAppTableRecord
  2
EZDXF
 70
0
  0
ENDTAB
  0
TABLE
  2
DIMSTYLE
  5
4
330
0
100
AcDbSymbolTable
 70
1
100
AcDbDimStyleTable
  0
DIMSTYLE
105
2B
330
4
100
AcDbSymbolTableRecord
100
AcDbDimStyleTableRecord
  2
Standard
 70
0
 40
1.0
 41
2.5
 42
0.625
 43
3.75
 44
1.25
 45
0.0
 46
0.0
 47
0.0
 48
0.0
 49
2.5
140
2.5
141
2.5
142
0.0
143
0.03937007874
144
1.0
145
0.0
146
1.0
147
0.625
148
0.0
 69
0
 70
0
 71
0
 72
0
 73
0
 74
0
 75
0
 76
0
 77
1
 78
8
 79
3
170
0
171
3
172
1
173
0
174
0
175
0
176
0
177
0
178
0
179
2
271
2
272
2
273
2
274
3
275
0
276
0
277
2
278
44
279
0
280
0
281
0
282
0
283
0
284
8
285
0
286
0
288
0
289
3
290
0
371
-2
372
-2
  0
ENDTAB
  0
TABLE
  2
BLOCK_RECORD
  5
9
330
0
100
AcDbSymbolTable
 70
2
  0
BLOCK_RECORD
  5
17
330
9
100
AcDbSymbolTableRecord
100
AcDbBlockTableRecord
  2
*Model_Space
340
1A
 70
0
280
1
281
0
  0
BLOCK_RECORD
  5
1B
330
9
100
AcDbSymbolTableRecord
100
AcDbBlockTableRecord
  2
*Paper_Space
340
1E
 70
0
280
1
281
0
  0
ENDTAB
  0
ENDSEC
  0
SECTION
  2
BLOCKS
  0
BLOCK
  5
18
330
17
100
AcDbEntity
  8
0
100
AcDbBlockBegin
  2
*Model_Space
 70
0
 10
0.0
 20
0.0
 30
0.0
  3
*Model_Space
  1

  0
ENDBLK
  5
19
330
17
100
AcDbEntity
  8
0
100
AcDbBlockEnd
  0
BLOCK
  5
1C
330
1B
100
AcDbEntity
  8
0
100
AcDbBlockBegin
  2
*Paper_Space
 70
0
 10
0.0
 20
0.0
 30
0.0
  3
*Paper_Space
  1

  0
ENDBLK
  5
1D
330
1B
100
AcDbEntity
  8
0
100
AcDbBlockEnd
  0
ENDSEC
  0
SECTION
  2
ENTITIES
  0
LWPOLYLINE
  5
2F
330
17
100
AcDbEntity
  8
GAZEBO
 48
0.2
100
AcDbPolyline
 90
13
 70
0
 10
-41.87874691354307
 20
13.99898390198245
 10
-43.41824027014036
 20
13.99898390198245
 10
-43.69940952402987
 20
13.6989839019825
 10
-44.55124691354308
 20
13.6989839019825
 10
-44.55124691354308
 20
13.97941113808701
 10
-46.7968146068307
 20
13.9794111380869
 10
-46.7968146068307
 20
14.26994997450674
 10
-46.44874691354312
 20
14.69398390198171
 10
-46.44874691354312
 20
15.51798390198212
 10
-45.99874691354307
 20
15.51798390198212
 10
-45.99874691354307
 20
14.44898390198239
 10
-41.87874691354318
 20
14.44898390198239
 10
-41.87874691354307
 20
13.99898390198245
  0
LWPOLYLINE
  5
30
330
17
100
AcDbEntity
  8
GAZEBO
 48
0.2
100
AcDbPolyline
 90
48
 70
1
 10
-50.06681460683058
 20
14.39744997450645
 10
-49.78908474746709
 20
14.39744997450645
 10
-49.78908474746686
 20
18.68718055629699
 10
-50.04908474746776
 20
18.68718055629711
 10
-50.04908474746776
 20
19.21718055629708
 10
-49.75144666374365
 20
19.21718055629708
 10
-49.75144666374376
 20
20.54718055629701
 10
-50.89144666374363
 20
20.54718055629695
 10
-50.89144666374363
 20
19.21718055629708
 10
-50.8114466637437
 20
19.21718055629708
 10
-50.8114466637437
 20
19.12718055629727
 10
-50.96144666374357
 20
19.12718055629705
 10
-50.96144666374357
 20
20.54718055629695
 10
-50.99885647033199
 20
20.54718055629695
 10
-50.99885647033199
 20
20.64718055629703
 10
-50.93234437079627
 20
20.70192513053019
 10
-50.90374691354281
 20
20.66718055629701
 10
-45.9987469135433
 20
20.66718055629701
 10
-45.9987469135433
 20
19.35218055629741
 10
-46.44874691354289
 20
19.35218055629718
 10
-46.44874691354289
 20
20.54718055629701
 10
-49.61908474746678
 20
20.54718055629701
 10
-49.61908474746678
 20
19.21718055629708
 10
-49.53908474746686
 20
19.21718055629708
 10
-49.53908474746663
 20
18.68718055629711
 10
-49.61681460683053
 20
18.68718055629711
 10
-49.61681460683076
 20
14.39744997450645
 10
-49.53681460683071
 20
14.39744997450645
 10
-49.53681460683071
 20
14.15744997450645
 10
-47.80789715511708
 20
14.15744997450645
 10
-47.80789715511708
 20
16.37298390198225
 10
-46.44874691354316
 20
16.37298390198202
 10
-46.44874691354289
 20
18.59218055629708
 10
-45.9987469135433
 20
18.59218055629708
 10
-45.99874691354307
 20
18.18398390198217
 10
-45.86374691354308
 20
18.18398390198217
 10
-45.86374691354308
 20
17.71398390198214
 10
-45.99874691354307
 20
17.71398390198214
 10
-45.99874691354307
 20
16.25298390198202
 10
-47.68789715511707
 20
16.25298390198208
 10
-47.68789715511707
 20
13.95244997450663
 10
-49.53681460683071
 20
13.95244997450652
 10
-49.53681460683071
 20
13.83244997450652
 10
-50.06681460683058
 20
13.83244997450652
 10
-50.06681460683063
 20
13.95244997450641
 10
-50.21012958416548
 20
13.95244997450641
 10
-50.21012958416548
 20
14.18994997450645
 10
-50.06681460683063
 20
14.18994997450659
  0
LWPOLYLINE
  5
31
330
17
100
AcDbEntity
  8
GAZEBO
 48
0.2
100
AcDbPolyline
 90
321
 70
0
 10
-43.14495113655204
 20
28.96898390198169
 10
-41.41983818389053
 20
28.96898390198169
 10
-41.41983818389053
 20
31.45398390198215
 10
-41.43757551436876
 20
31.45398390198216
 10
-43.10374691354337
 20
31.45398390198216
 10
-43.10374691354332
 20
31.10898390198173
 10
-43.20374691354345
 20
31.10398390198174
 10
-43.2037469135434
 20
31.45398390198216
 10
-44.04374691354291
 20
31.45398390198216
 10
-44.04374691354291
 20
31.12898390198166
 10
-44.19374691354278
 20
31.12898390198166
 10
-44.19374691354278
 20
31.4539839019817
 10
-44.3037469135428
 20
31.45398390198193
 10
-44.3037469135429
 20
31.60398390198214
 10
-41.46983818389052
 20
31.60398390198214
 10
-41.46983818389052
 20
35.97398390198168
 10
-43.41374691354303
 20
35.97398390198168
 10
-43.41374691354303
 20
35.47398390198237
 10
-43.703746913543
 20
35.47398390198237
 10
-43.703746913543
 20
35.88898390198244
 10
-45.65874691354247
 20
35.88898390198244
 10
-45.65874691354247
 20
35.52898390198243
 10
-46.17874691354313
 20
35.52898390198243
 10
-46.17874691354313
 20
35.88898390198233
 10
-49.09492571495889
 20
35.88898390198226
 10
-49.094925714959
 20
31.60698390198218
 10
-45.79374691354291
 20
31.60698390198218
 10
-45.79374691354291
 20
31.45398390198193
 10
-45.89374691354282
 20
31.4539839019817
 10
-45.89374691354282
 20
31.13398390198165
 10
-46.04374691354297
 20
31.13398390198154
 10
-46.04374691354292
 20
31.48698390198217
 10
-46.70374691354242
 20
31.48698390198217
 10
-46.70374691354237
 20
31.13398390198154
 10
-46.80374691354251
 20
31.13398390198154
 10
-46.80374691354245
 20
31.48698390198217
 10
-49.21492571495901
 20
31.48698390198229
 10
-49.21492571495895
 20
33.5508292370206
 10
-49.36465028461106
 20
33.5508292370206
 10
-49.36465028461106
 20
33.70082923702057
 10
-49.21492571495895
 20
33.70082923702057
 10
-49.21492571495889
 20
35.88898390198226
 10
-50.31874691354255
 20
35.88898390198222
 10
-50.31874691354244
 20
35.59898390198294
 10
-50.75026729914793
 20
35.59898390198282
 10
-50.75026729914793
 20
35.88898390198222
 10
-50.75026729914793
 20
35.88898390198222
 10
-54.87874691354363
 20
35.88898390198222
 10
-54.87874691354363
 20
35.73898390198269
 10
-55.27874691354373
 20
35.73898390198258
 10
-55.27874691354361
 20
33.70082923702057
 10
-50.13294827950665
 20
33.70082923702057
 10
-50.13294827950668
 20
33.5508292370206
 10
-55.27874691354362
 20
33.5508292370206
 10
-55.27874691354361
 20
33.36898390198144
 10
-55.88983818389056
 20
33.36898390198144
 10
-55.88983818389067
 20
33.86898390198155
 10
-55.99983818389046
 20
33.86898390198144
 10
-55.99983818389046
 20
34.88898390198154
 10
-56.0898381838906
 20
34.88898390198142
 10
-56.08983818389049
 20
36.5639839019828
 10
-55.93983818389052
 20
36.5639839019828
 10
-55.93983818389052
 20
36.46398390198283
 10
-54.39983818389055
 20
36.46398390198283
 10
-54.39983818389055
 20
36.3739839019828
 10
-53.23983818389047
 20
36.37398390198285
 10
-53.2398381838907
 20
40.6247149066636
 10
-55.93983818389052
 20
40.48859679359191
 10
-55.93983818389052
 20
37.33228189687833
 10
-56.08983818389049
 20
37.33228189687833
 10
-56.08983818389049
 20
37.42382331359682
 10
-56.23983818389047
 20
37.42382331359682
 10
-56.23983818389047
 20
37.57382331359679
 10
-56.08983818389049
 20
37.57382331359679
 10
-56.08983818389049
 20
40.48103467619904
 10
-59.31347269349817
 20
40.31851799224329
 10
-59.74482349914876
 20
37.58178996315064
 10
-57.008136178786
 20
37.57382331359679
 10
-57.008136178786
 20
37.42382331359682
 10
-59.70632411417227
 20
37.42382331359682
 10
-59.99397327114912
 20
35.30430320956089
 10
-60.05343108229462
 20
35.31235124708628
 10
-60.28548275958237
 20
33.59798488627879
 10
-60.2266262317488
 20
33.5900182367252
 10
-60.4954943422616
 20
31.6088847908444
 10
-56.78456275354259
 20
31.6088847908444
 10
-56.78456275354261
 20
31.45888479084443
 10
-60.51585148511867
 20
31.45888479084443
 10
-60.57530929626421
 20
31.46693282836964
 10
-60.80736097355191
 20
29.75256646756248
 10
-60.7485446062958
 20
29.74430389796316
 10
-60.82323089146484
 20
29.19398390198217
 10
-56.0898381838906
 20
29.19398390198194
 10
-56.0898381838906
 20
29.45898390198158
 10
-55.99983818389046
 20
29.45898390198158
 10
-55.99983818389046
 20
31.13898390198154
 10
-55.88983818389056
 20
31.13898390198154
 10
-55.88983818389056
 20
31.45888479084443
 10
-56.0395627535427
 20
31.45888479084443
 10
-56.03956275354267
 20
31.6088847908444
 10
-55.88983818389056
 20
31.6088847908444
 10
-55.88983818389056
 20
31.66882923702156
 10
-55.27874691354373
 20
31.66882923702144
 10
-55.27874691354373
 20
31.48698390198229
 10
-50.71492571495901
 20
31.48698390198229
 10
-50.71492571495884
 20
30.49038100801528
 10
-50.81492571495897
 20
30.49038100801528
 10
-50.81492571495903
 20
31.33698390198231
 10
-55.27874691354373
 20
31.33698390198231
 10
-55.27874691354373
 20
29.45898390198158
 10
-54.93374691354302
 20
29.45898390198158
 10
-54.93374691354325
 20
28.97398390198225
 10
-50.81492571495897
 20
28.97398390198225
 10
-50.81492571495892
 20
29.72208301311969
 10
-50.71492571495901
 20
29.72208301311969
 10
-50.71492571495901
 20
28.97398390198225
 10
-50.11408474746691
 20
28.97398390198225
 10
-50.11408474746691
 20
29.16898390198128
 10
-49.53908474746686
 20
29.16898390198105
 10
-49.53908474746686
 20
28.96898390198101
 10
-47.67976438505326
 20
28.96898390198112
 10
-47.67976438505328
 20
25.37898390198174
 10
-46.44874691354316
 20
25.37898390198174
 10
-46.44874691354317
 20
25.6364839019825
 10
-45.99874691354347
 20
25.63648390198216
 10
-45.99874691354353
 20
25.38648390198216
 10
-45.86874691354353
 20
25.37898390198211
 10
-45.86874691354353
 20
24.91148390198202
 10
-45.99874691354353
 20
24.91148390198191
 10
-45.99874691354353
 20
24.32441113808773
 10
-46.8037469135425
 20
24.32441113808772
 10
-46.80374691354245
 20
24.42441113808773
 10
-46.44874691354313
 20
24.42441113808773
 10
-46.4487469135432
 20
25.27898390198182
 10
-47.77976438505327
 20
25.27898390198174
 10
-47.77976438505326
 20
28.6389839019821
 10
-49.53908474746686
 20
28.6389839019821
 10
-49.53908474746686
 20
28.58398390198238
 10
-49.61681460683053
 20
28.58398390198243
 10
-49.61681460683078
 20
24.13441113808756
 10
-49.53908474746686
 20
24.13441113808756
 10
-49.53908474746686
 20
23.60441113808759
 10
-49.61681460683076
 20
23.60441113808759
 10
-49.61681460683076
 20
22.38441113808756
 10
-46.44874691354312
 20
22.38441113808756
 10
-46.44874691354311
 20
23.34441113808772
 10
-46.80374691354251
 20
23.34441113808772
 10
-46.80374691354248
 20
23.44441113808771
 10
-45.99874691354352
 20
23.44441113808771
 10
-45.99874691354353
 20
22.26441113808767
 10
-49.88408474746688
 20
22.26441113808755
 10
-49.88408474746688
 20
22.38441113808756
 10
-49.78908474746686
 20
22.38441113808756
 10
-49.78908474746686
 20
22.95909658335881
 10
-49.88179754911539
 20
22.95909658335893
 10
-49.88179754911539
 20
23.05909658335872
 10
-49.78908474746679
 20
23.05909658335884
 10
-49.78908474746674
 20
23.60441113808759
 10
-50.06908474746683
 20
23.60441113808759
 10
-50.06908474746683
 20
24.13441113808756
 10
-49.78908474746686
 20
24.13441113808756
 10
-49.78908474746663
 20
28.58398390198249
 10
-50.11408474746691
 20
28.58398390198272
 10
-50.11408474746691
 20
28.82398390198228
 10
-54.93374691354325
 20
28.82398390198228
 10
-56.0311113426867
 20
28.82398390198216
 10
-57.2203976330594
 20
27.58441113808761
 10
-57.22039763305929
 20
26.84991011403941
 10
-57.2203976330594
 20
24.38991011403937
 10
-57.2203976330594
 20
24.38991011403937
 10
-57.04539763305934
 20
24.38991011403937
 10
-57.04539763305934
 20
24.01441113808744
 10
-56.86539763305972
 20
24.01441113808733
 10
-56.86539763305972
 20
23.72941113808725
 10
-57.22039763305975
 20
23.72941113808725
 10
-57.22039763305975
 20
21.52941113808765
 10
-51.57642774144074
 20
21.52941113808754
 10
-51.57642774144051
 20
23.05909658335895
 10
-51.37408474746695
 20
23.05909658335884
 10
-51.37408474746689
 20
22.95909658335893
 10
-51.47642774144054
 20
22.95909658335893
 10
-51.47642774144066
 20
22.38441113808741
 10
-51.37408474746689
 20
22.38441113808756
 10
-51.37408474746689
 20
22.26441113808755
 10
-51.47642774144066
 20
22.26441113808767
 10
-51.47642774144078
 20
21.35586097552709
 10
-51.44422737959587
 20
21.31673904057539
 10
-51.53339580881183
 20
21.24334656422082
 10
-51.6577335734562
 20
21.39441113808778
 10
-57.22039763305975
 20
21.39441113808778
 10
-57.22039763305952
 20
19.10941113808758
 10
-56.86039763305962
 20
19.10941113808758
 10
-56.86039763305962
 20
18.79994997450672
 10
-57.22039763305952
 20
18.79994997450672
 10
-57.22039763305952
 20
15.3975987020541
 10
-55.92582368363469
 20
14.18994997450659
 10
-51.70012958416549
 20
14.18994997450664
 10
-51.70012958416549
 20
13.95244997450629
 10
-54.7337469135432
 20
13.95244997450652
 10
-54.73374691354308
 20
13.4399499745067
 10
-55.26039763305959
 20
13.43994997450681
 10
-55.26039763305971
 20
11.58994997450668
 10
-55.62039763305961
 20
11.58994997450668
 10
-55.62039763305961
 20
11.89994997450674
 10
-55.70039763305965
 20
11.89994997450674
 10
-55.70039763305965
 20
12.9399499745067
 10
-55.7703976330597
 20
12.9399499745067
 10
-55.7703976330597
 20
13.42994997450671
 10
-56.20539763306055
 20
13.42994997450671
 10
-56.20539763306055
 20
13.75398390198029
 10
-60.15539763306037
 20
13.75398390198029
 10
-60.15539763306037
 20
13.3639839019803
 10
-60.27539763306049
 20
13.3639839019803
 10
-60.27539763306049
 20
13.7539839019803
 10
-62.3234611992575
 20
13.7539839019804
 10
-62.3234611992575
 20
13.45398390198215
 10
-62.39455246960483
 20
13.45398390198215
 10
-62.94012389817749
 20
9.433983901980355
 10
-60.27539763306037
 20
9.433983901980355
 10
-60.27539763306037
 20
12.42398390198036
 10
-60.15539763306037
 20
12.42398390198025
 10
-60.15539763306037
 20
9.433983901980355
 10
-55.79539763305979
 20
9.433983901980355
 10
-55.79539763305979
 20
9.889949974506862
 10
-55.62039763305961
 20
9.889949974506713
 10
-55.62039763305984
 20
10.58994997450668
 10
-55.50039763305949
 20
10.58994997450668
 10
-55.50039763305972
 20
9.889949974506635
 10
-55.26039763305949
 20
9.889949974506408
 10
-55.26039763305952
 20
9.452449974506521
 10
-53.26039763305965
 20
9.452449974506465
 10
-53.26039763305965
 20
12.24398390198246
 10
-47.99109823498088
 20
12.24398390198223
 10
-47.99109823498088
 20
12.1439839019821
 10
-53.16039763305969
 20
12.14398390198244
 10
-53.16039763305969
 20
9.352449974506555
 10
-55.26039763305953
 20
9.352449974506555
 10
-55.26039763305971
 20
7.278983901981973
 10
-55.05039763305967
 20
7.278983901981973
 10
-55.05039763305967
 20
6.963983901981919
 10
-52.75483818389057
 20
6.963983901981919
 10
-52.75483818389057
 20
7.283983901982082
 10
-52.32592945423835
 20
7.283983901982082
 10
-52.32592945423835
 20
6.963983901981919
 10
-48.17983818389075
 20
6.963983901981919
 10
-48.17983818389075
 20
7.263983901982101
 10
-47.87983818389079
 20
7.263983901982101
 10
-47.87983818389079
 20
6.963983901981919
 10
-45.54983818389087
 20
6.963983901981919
 10
-45.54983818389132
 20
12.14398390198198
 10
-46.50109823498087
 20
12.14398390198204
 10
-46.50109823498087
 20
12.24398390198206
 10
-45.39983818389134
 20
12.243983901982
 10
-45.39983818389077
 20
6.963983901981919
 10
-44.61124691354314
 20
6.963983901981919
 10
-44.61124691354314
 20
7.333983901982492
 10
-43.64124691354243
 20
7.333983901982719
 10
-43.64124691354255
 20
7.003983901981882
 10
-40.26474691354337
 20
7.003983901981882
 10
-40.26474691354337
 20
7.368983901981891
 10
-40.02474691354336
 20
7.368983901981891
 10
-40.03915564319572
 20
13.99898390198234
 10
-40.18874691354324
 20
13.99898390198223
 10
-40.21019260370161
 20
14.22398390198236
 10
-40.18874691354312
 20
14.4489839019825
 10
-39.07874691354312
 20
14.44898390198239
 10
-39.07874691354312
 20
17.71398390198214
 10
-39.9031775062694
 20
17.71398390198214
 10
-44.18874691354313
 20
17.71398390198214
 10
-44.18874691354313
 20
18.18398390198217
 10
-44.04874691354303
 20
18.18398390198217
 10
-44.04874691354303
 20
18.3939839019821
 10
-43.64567819157935
 20
18.3939839019821
 10
-43.64567819157935
 20
18.33398390198204
 10
-43.52567819157934
 20
18.33398390198204
 10
-43.52567819157934
 20
18.19365922566351
 10
-39.40567819157946
 20
18.19365922566351
 10
-39.40567819157946
 20
18.34365922566348
 10
-39.19567819157942
 20
18.34365922566348
 10
-39.19567819157942
 20
21.65968213298492
 10
-39.35567819157927
 20
21.65968213298492
 10
-39.35567819157927
 20
21.7336592256637
 10
-43.0756781915793
 20
21.73365922566359
 10
-43.0756781915793
 20
20.91365922566343
 10
-43.64567819157935
 20
20.91365922566343
 10
-43.64567819157935
 20
19.1339839019821
 10
-44.04874691354303
 20
19.1339839019821
 10
-44.04874691354314
 20
24.90398390198209
 10
-44.18874691354313
 20
24.91148390198202
 10
-44.18874691354313
 20
25.37898390198211
 10
-39.7198381838905
 20
25.37898390198206
 10
-39.71983818389055
 20
28.63898390198198
 10
-40.31983818389054
 20
28.63898390198155
 10
-40.31983818389054
 20
28.96898390198169
 10
-38.97874691354312
 20
28.96898390198169
 10
-38.97874691354301
 20
29.29898390198207
 10
-38.66874691354295
 20
29.29898390198207
 10
-38.66874691354306
 20
28.96898390198158
 10
-34.77265564319578
 20
28.96898390198078
 10
-34.77265564319566
 20
29.18898390198183
 10
-34.39265564319567
 20
29.18898390198171
 10
-34.39265564319567
 20
35.67398390198173
 10
-34.62265564319569
 20
35.67398390198162
 10
-34.62265564319569
 20
35.97398390198168
 10
-38.71874691354242
 20
35.97398390198168
 10
-38.71874691354242
 20
35.61898390198178
 10
-39.12374691354262
 20
35.61898390198178
 10
-39.12374691354262
 20
35.97398390198168
 10
-41.31983818389054
 20
35.97398390198178
 10
-41.31983818389055
 20
28.96898390197632
 10
-41.31983818389055
 20
28.63898390198168
 10
-44.27874691354304
 20
28.63898390198165
 10
-44.27874691354304
 20
28.96898390198169
 10
-44.19374691354278
 20
28.96898390198169
 10
-44.19374691354278
 20
29.63898390198165
 10
-44.04374691354291
 20
29.63898390198165
 10
-44.04374691354291
 20
28.96898390198169
 10
-43.20374691354333
 20
28.96898390198169
 10
-43.20374691354345
 20
29.63898390198153
 10
-43.10374691354343
 20
29.64398390198164
 10
-43.10374691354337
 20
28.96898390198169
  0
LWPOLYLINE
  5
32
330
17
100
AcDbEntity
  8
GAZEBO
 48
0.2
100
AcDbPolyline
 90
18
 70
0
 10
-46.02673070721431
 20
29.28398390198227
 10
-46.04374691354292
 20
29.28398390198231
 10
-46.04374691354292
 20
29.64398390198164
 10
-45.89374691354282
 20
29.64398390198164
 10
-45.89374691354282
 20
29.28398390198193
 10
-45.82374691354289
 20
29.28398390198174
 10
-45.82374691354289
 20
28.9689839019818
 10
-45.80374691354291
 20
28.96898390198169
 10
-45.80374691354291
 20
28.63898390198187
 10
-45.99874691354353
 20
28.63898390198187
 10
-45.99874691354353
 20
27.85398390198191
 10
-46.44874691354312
 20
27.85398390198191
 10
-46.44874691354312
 20
28.44898390198182
 10
-46.80374691354245
 20
28.79898390198105
 10
-46.80374691354245
 20
28.96898390198112
 10
-46.19374691354255
 20
28.96898390198112
 10
-46.19374691354255
 20
29.28398390198277
 10
-46.04374691354292
 20
29.28398390198235
  0
LWPOLYLINE
  5
33
330
17
100
AcDbEntity
  8
GAZEBO
 48
0.2
100
AcDbPolyline
 90
2
 70
0
 10
-43.20374691354333
 20
28.96898390198169
 10
-44.04374691354291
 20
28.96898390198169
  0
ENDSEC
  0
SECTION
  2
OBJECTS
  0
DICTIONARY
  5
A
330
0
100
AcDbDictionary
281
1
  3
ACAD_COLOR
350
B
  3
ACAD_GROUP
350
C
  3
ACAD_LAYOUT
350
D
  3
ACAD_MATERIAL
350
E
  3
ACAD_MLEADERSTYLE
350
F
  3
ACAD_MLINESTYLE
350
10
  3
ACAD_PLOTSETTINGS
350
11
  3
ACAD_PLOTSTYLENAME
350
12
  3
ACAD_SCALELIST
350
14
  3
ACAD_TABLESTYLE
350
15
  3
ACAD_VISUALSTYLE
350
16
  3
EZDXF_META
350
2D
  0
DICTIONARY
  5
B
330
A
100
AcDbDictionary
281
1
  0
DICTIONARY
  5
C
330
A
100
AcDbDictionary
281
1
  0
DICTIONARY
  5
D
330
A
100
AcDbDictionary
281
1
  3
Model
350
1A
  3
Layout1
350
1E
  0
DICTIONARY
  5
E
330
A
100
AcDbDictionary
281
1
  3
ByBlock
350
1F
  3
ByLayer
350
20
  3
Global
350
21
  0
DICTIONARY
  5
F
330
A
100
AcDbDictionary
281
1
  3
Standard
350
2C
  0
DICTIONARY
  5
10
330
A
100
AcDbDictionary
281
1
  3
Standard
350
22
  0
DICTIONARY
  5
11
330
A
100
AcDbDictionary
281
1
  0
ACDBDICTIONARYWDFLT
  5
12
330
A
100
AcDbDictionary
281
1
  3
Normal
350
13
100
AcDbDictionaryWithDefault
340
13
  0
ACDBPLACEHOLDER
  5
13
330
12
  0
DICTIONARY
  5
14
330
A
100
AcDbDictionary
281
1
  0
DICTIONARY
  5
15
330
A
100
AcDbDictionary
281
1
  0
DICTIONARY
  5
16
330
A
100
AcDbDictionary
281
1
  0
LAYOUT
  5
1A
330
D
100
AcDbPlotSettings
  1

  2
Adobe PDF
  4
A3
  6

 40
7.5
 41
20.0
 42
7.5
 43
20.0
 44
420.0
 45
297.0
 46
0.0
 47
0.0
 48
0.0
 49
0.0
140
0.0
141
0.0
142
1.0
143
1.0
 70
1024
 72
1
 73
1
 74
5
  7

 75
16
 76
0
 77
2
 78
300
147
1.0
148
0.0
149
0.0
100
AcDbLayout
  1
Model
 70
1
 71
0
 10
0.0
 20
0.0
 11
420.0
 21
297.0
 12
0.0
 22
0.0
 32
0.0
 14
1e+20
 24
1e+20
 34
1e+20
 15
-1e+20
 25
-1e+20
 35
-1e+20
146
0.0
 13
0.0
 23
0.0
 33
0.0
 16
1.0
 26
0.0
 36
0.0
 17
0.0
 27
1.0
 37
0.0
 76
1
330
17
  0
LAYOUT
  5
1E
330
D
100
AcDbPlotSettings
  1

  2
Adobe PDF
  4
A3
  6

 40
7.5
 41
20.0
 42
7.5
 43
20.0
 44
420.0
 45
297.0
 46
0.0
 47
0.0
 48
0.0
 49
0.0
140
0.0
141
0.0
142
1.0
143
1.0
 70
0
 72
1
 73
1
 74
5
  7

 75
16
 76
0
 77
2
 78
300
147
1.0
148
0.0
149
0.0
100
AcDbLayout
  1
Layout1
 70
1
 71
1
 10
0.0
 20
0.0
 11
420.0
 21
297.0
 12
0.0
 22
0.0
 32
0.0
 14
1e+20
 24
1e+20
 34
1e+20
 15
-1e+20
 25
-1e+20
 35
-1e+20
146
0.0
 13
0.0
 23
0.0
 33
0.0
 16
1.0
 26
0.0
 36
0.0
 17
0.0
 27
1.0
 37
0.0
 76
1
330
1B
  0
MATERIAL
  5
1F
102
{ACAD_REACTORS
330
E
102
}
330
E
100
AcDbMaterial
  1
ByBlock
  2

 70
0
 40
1.0
 71
1
 41
1.0
 91
-1023410177
 42
1.0
 72
1
  3

 73
1
 74
1
 75
1
 44
0.5
 73
0
 45
1.0
 46
1.0
 77
1
  4

 78
1
 79
1
170
1
 48
1.0
171
1
  6

172
1
173
1
174
1
140
1.0
141
1.0
175
1
  7

176
1
177
1
178
1
143
1.0
179
1
  8

270
1
271
1
272
1
145
1.0
146
1.0
273
1
  9

274
1
275
1
276
1
 42
1.0
 72
1
  3

 73
1
 74
1
 75
1
 94
63
  0
MATERIAL
  5
20
102
{ACAD_REACTORS
330
E
102
}
330
E
100
AcDbMaterial
  1
ByLayer
  2

 70
0
 40
1.0
 71
1
 41
1.0
 91
-1023410177
 42
1.0
 72
1
  3

 73
1
 74
1
 75
1
 44
0.5
 73
0
 45
1.0
 46
1.0
 77
1
  4

 78
1
 79
1
170
1
 48
1.0
171
1
  6

172
1
173
1
174
1
140
1.0
141
1.0
175
1
  7

176
1
177
1
178
1
143
1.0
179
1
  8

270
1
271
1
272
1
145
1.0
146
1.0
273
1
  9

274
1
275
1
276
1
 42
1.0
 72
1
  3

 73
1
 74
1
 75
1
 94
63
  0
MATERIAL
  5
21
102
{ACAD_REACTORS
330
E
102
}
330
E
100
AcDbMaterial
  1
Global
  2

 70
0
 40
1.0
 71
1
 41
1.0
 91
-1023410177
 42
1.0
 72
1
  3

 73
1
 74
1
 75
1
 44
0.5
 73
0
 45
1.0
 46
1.0
 77
1
  4

 78
1
 79
1
170
1
 48
1.0
171
1
  6

172
1
173
1
174
1
140
1.0
141
1.0
175
1
  7

176
1
177
1
178
1
143
1.0
179
1
  8

270
1
271
1
272
1
145
1.0
146
1.0
273
1
  9

274
1
275
1
276
1
 42
1.0
 72
1
  3

 73
1
 74
1
 75
1
 94
63
  0
MLINESTYLE
  5
22
102
{ACAD_REACTORS
330
10
102
}
330
10
100
AcDbMlineStyle
  2
Standard
 70
0
  3

 62
256
 51
90.0
 52
90.0
 71
2
 49
0.5
 62
256
  6
BYLAYER
 49
-0.5
 62
256
  6
BYLAYER
  0
MLEADERSTYLE
  5
2C
102
{ACAD_REACTORS
330
F
102
}
330
F
100
AcDbMLeaderStyle
179
2
170
2
171
1
172
0
 90
2
 40
0.0
 41
0.0
173
1
 91
-1056964608
 92
-2
290
1
 42
2.0
291
1
 43
8.0
  3
Standard
 44
4.0
300

342
29
174
1
175
1
176
0
178
1
 93
-1056964608
 45
4.0
292
0
297
0
 46
4.0
 94
-1056964608
 47
1.0
 49
1.0
140
1.0
294
1
141
0.0
177
0
142
1.0
295
0
296
0
143
3.75
271
0
272
9
273
9
  0
DICTIONARY
  5
2D
330
A
100
AcDbDictionary
280
1
281
1
  3
CREATED_BY_EZDXF
350
2E
  3
WRITTEN_BY_EZDXF
350
36
  0
DICTIONARYVAR
  5
2E
330
2D
100
DictionaryVariables
280
0
  1
0.17.2 @ 2022-12-06T03:56:41.078878+00:00
  0
DICTIONARYVAR
  5
36
330
2D
100
DictionaryVariables
280
0
  1
0.17.2 @ 2022-12-06T03:56:41.092563+00:00
  0
ENDSEC
  0
EOF
